<svg width="102" height="102" viewBox="0 0 102 102" fill="none" xmlns="http://www.w3.org/2000/svg">
<circle cx="51" cy="51" r="49.5" stroke="black" stroke-width="3"/>
<g clip-path="url(#clip0_8_23)">
<circle cx="6.5" cy="6.5" r="3.9" transform="matrix(-1 0 0 1 24 43)" fill="black" stroke="black" stroke-width="5.2"/>
<path d="M63.4487 83.2649L63.8743 82.9669L64.6672 82.3831C72.5152 76.4585 77.834 68.0282 79.7667 58.4306L79.9493 57.4671C81.7846 46.9841 79.4172 36.3648 73.2565 27.5664C67.0957 18.7678 57.9418 12.9012 47.4494 11.0509C36.9662 9.21522 26.3458 11.5826 17.5474 17.7434L17.1218 18.0413C8.57192 24.1811 2.86625 33.2225 1.0468 43.5411L1.0476 43.5406C-0.788033 54.0239 1.57879 64.6434 7.73954 73.4419C13.9005 82.2406 23.0546 88.1079 33.5472 89.9582L33.5474 89.9568C44.0307 91.7924 54.6502 89.4256 63.4487 83.2649ZM72.6807 71.1628L71.773 70.7791C71.7988 70.6675 71.8221 70.5577 71.846 70.4406C71.8682 70.332 71.8906 70.2168 71.9176 70.0985L71.9184 70.0979C72.9142 64.738 71.7265 59.3122 68.5914 54.8347C62.0978 45.561 49.2612 43.2975 39.9874 49.7911C31.4936 55.7384 19.7341 53.6784 13.7758 45.1693C7.9831 36.8964 9.96546 25.4684 18.1372 19.4285L18.1367 19.4277L18.5326 19.1505C35.8291 7.03937 59.7383 11.2552 71.8494 28.5517C81.0122 41.6375 80.8314 58.5074 72.6807 71.1628ZM62.4482 81.8684C45.1518 93.9794 21.2433 89.7631 9.13226 72.4667C-0.0305372 59.3808 0.149953 42.512 8.28925 29.8422L9.2031 30.199C9.16015 30.4425 9.11836 30.6761 9.06247 30.921C8.06673 36.2808 9.25437 41.7068 12.3894 46.1841C18.883 55.4579 31.7197 57.7212 40.9934 51.2278C49.4873 45.2803 61.2468 47.3404 67.205 55.8496C72.9977 64.1224 71.016 75.5498 62.8444 81.5898L62.845 81.5906L62.4482 81.8684Z" fill="black" stroke="black"/>
<circle cx="6.5" cy="6.5" r="3.9" transform="matrix(0 -1 -1 0 24 55.9999)" fill="black" stroke="black" stroke-width="5.2"/>
</g>
<defs>
<clipPath id="clip0_8_23">
<rect width="81" height="81" fill="white" transform="matrix(-1 0 0 1 81 10)"/>
</clipPath>
</defs>
</svg>
